<svg xmlns="http://www.w3.org/2000/svg" viewBox="0 0 236 56" role="img" aria-labelledby="title">
  <title id="title">NEWABBY</title>
  <g transform="rotate(-7 26 28)">
    <path d="M19 8h14c9 0 15 6 15 15v10c0 8-6 14-14 14H25l-12 6 2-11C8 40 4 35 4 28v-5C4 14 10 8 19 8Z" fill="#a6eed3"/>
    <path d="M17 24v2m16-2v2" stroke="#173d38" stroke-width="4.5" stroke-linecap="round"/>
    <path d="M18 34c4 5 11 5 16-1" fill="none" stroke="#173d38" stroke-width="3.5" stroke-linecap="round"/>
    <ellipse cx="12" cy="31" rx="3.5" ry="2.3" fill="#ff9989"/>
    <ellipse cx="38" cy="30" rx="3.5" ry="2.3" fill="#ff9989"/>
  </g>
  <path d="m46 1 3 7 7 3-7 3-3 7-3-7-7-3 7-3Z" fill="#ffda74"/>
  <g fill="none" stroke="#fffdf4" stroke-width="5.5" stroke-linecap="round" stroke-linejoin="round">
    <path d="M67 37V16l15 21V16"/>
    <path d="M104 16H92v21h12M93 26h9"/>
    <path d="m113 16 5 21 7-15 7 15 5-21"/>
  </g>
  <g fill="none" stroke="#a6eed3" stroke-width="5.5" stroke-linecap="round" stroke-linejoin="round">
    <path d="m147 37 8-21 8 21m-13-7h10"/>
    <path d="M174 16v21h7c10 0 10-11 0-11h-7m0-10h6c9 0 9 10 0 10"/>
    <path d="M196 16v21h7c10 0 10-11 0-11h-7m0-10h6c9 0 9 10 0 10"/>
    <path d="m217 16 7 11 8-11m-8 11v10"/>
  </g>
  <path d="M170 46c12 5 30 5 43-1" fill="none" stroke="#ff9989" stroke-width="3" stroke-linecap="round"/>
</svg>
