<svg xmlns="http://www.w3.org/2000/svg" viewBox="0 0 56 56" role="img" aria-label="NEWABBY smiling speech bubble">
  <g transform="rotate(-7 26 28)">
    <path d="M19 8h14c9 0 15 6 15 15v10c0 8-6 14-14 14H25l-12 6 2-11C8 40 4 35 4 28v-5C4 14 10 8 19 8Z" fill="#a6eed3"/>
    <path d="M17 24v2m16-2v2" stroke="#173d38" stroke-width="4.5" stroke-linecap="round"/>
    <path d="M18 34c4 5 11 5 16-1" fill="none" stroke="#173d38" stroke-width="3.5" stroke-linecap="round"/>
    <ellipse cx="12" cy="31" rx="3.5" ry="2.3" fill="#ff9989"/>
    <ellipse cx="38" cy="30" rx="3.5" ry="2.3" fill="#ff9989"/>
  </g>
  <path d="m46 1 3 7 7 3-7 3-3 7-3-7-7-3 7-3Z" fill="#ffda74"/>
</svg>
