<svg xmlns="http://www.w3.org/2000/svg" viewBox="0 0 96 96" role="img" aria-label="SpeakEasy mouth logo">
  <rect width="96" height="96" rx="22" fill="#ffffff"/>
  <path d="M18 48c9-16 20-22 31-18 10-4 22 2 31 18-8 16-20 24-31 21-12 3-24-5-31-21z" fill="#f26f64"/>
  <path d="M25 47c7 7 16 11 24 11 9 0 18-4 25-11-7 3-16 5-25 5-8 0-17-2-24-5z" fill="#6f1f2c" opacity=".88"/>
  <path d="M32 43c11 5 23 5 34 0-5 7-10 11-17 11s-13-4-17-11z" fill="#ffffff"/>
  <path d="M52 23c5-7 13-11 22-11" fill="none" stroke="#1f7a5a" stroke-width="6" stroke-linecap="round"/>
  <path d="M63 31c5-4 11-6 17-5" fill="none" stroke="#1f7a5a" stroke-width="5" stroke-linecap="round"/>
  <path d="M22 67c8 8 18 12 30 12 10 0 18-3 25-9" fill="none" stroke="#155f45" stroke-width="5" stroke-linecap="round" opacity=".28"/>
</svg>
